<svg xmlns="http://www.w3.org/2000/svg" width="45" height="36" viewBox="0 0 45 36">
    <g fill="#AAADB7" fill-rule="nonzero">
        <path d="M40.87.09H11.747a4.057 4.057 0 0 0-4.045 4.044V5.55L3.01 6.844c-1.052.283-1.942.93-2.468 1.86a4.071 4.071 0 0 0-.404 3.075L5.8 32.894c.283 1.051.93 1.941 1.86 2.467a4.018 4.018 0 0 0 2.023.566c.364 0 .688-.04 1.052-.121l18.525-4.975h11.61a4.057 4.057 0 0 0 4.044-4.045V4.134A4.057 4.057 0 0 0 40.87.09zM10.331 34.228a2.479 2.479 0 0 1-1.86-.243 2.365 2.365 0 0 1-1.133-1.497L1.675 11.375a2.479 2.479 0 0 1 .243-1.861c.323-.566.849-.97 1.496-1.133l4.288-1.173v19.578a4.057 4.057 0 0 0 4.045 4.045h11.245l-12.66 3.398zm32.966-7.443a2.434 2.434 0 0 1-2.427 2.427H11.747a2.434 2.434 0 0 1-2.427-2.427V4.134a2.434 2.434 0 0 1 2.427-2.427H40.87a2.434 2.434 0 0 1 2.427 2.427v11.488l-3.842-3.843c-.648-.647-1.618-.647-2.265 0l-9.263 9.223-.04-.04-4.693-4.693c-.607-.607-1.658-.607-2.265 0l-3.964 3.964a.782.782 0 0 0 0 1.133.782.782 0 0 0 1.132 0l3.964-3.964 4.693 4.692.04.04-3.276 3.277a.782.782 0 0 0 0 1.132.799.799 0 0 0 .566.243c.202 0 .404-.081.566-.243l13.672-13.631 4.814 4.813c.04.04.12.081.161.121v8.94z"/>
        <path d="M15.023 22.175l-.809.809a.782.782 0 0 0 0 1.132.799.799 0 0 0 .567.243c.202 0 .404-.081.566-.243l.809-.809a.782.782 0 0 0 0-1.132.782.782 0 0 0-1.133 0zM20.646 8.988A4.057 4.057 0 0 0 16.6 4.943a4.057 4.057 0 0 0-4.045 4.045 4.057 4.057 0 0 0 4.045 4.045 4.057 4.057 0 0 0 4.045-4.045zM16.6 11.415a2.434 2.434 0 0 1-2.427-2.427A2.434 2.434 0 0 1 16.6 6.561a2.434 2.434 0 0 1 2.427 2.427 2.434 2.434 0 0 1-2.427 2.427z"/>
    </g>
</svg>
