<svg xmlns="http://www.w3.org/2000/svg" xmlns:xlink="http://www.w3.org/1999/xlink" width="130" height="56" viewBox="0 0 130 56">
    <defs>
        <path id="prefix__a" d="M0.243 0.087L54.834 0.087 54.834 55.714 0.243 55.714z"/>
    </defs>
    <g fill="none" fill-rule="evenodd">
        <g transform="translate(4)">
            <mask id="prefix__b" fill="#fff">
                <use xlink:href="#prefix__a"/>
            </mask>
            <path fill="#FBEAF2" d="M53.83 36.863c-.285.815-.614 1.63-.996 2.44-4.49 9.525-14.512 15.693-24.998 15.412l-.245-.008c-6.764-.247-13.5-3.238-18.483-8.205C3.845 41.255 1.055 34.39 1.253 27.17 1.658 12.387 14.13.687 29.055 1.088c5.53.148 9.68 1.96 11.21 2.733.136.069.327.165.564.292 4.098 2.19 8.32 6.263 10.756 10.374.74 1.25 1.43 2.71 2.009 4.33.322-.087.651-.153.986-.197-.61-1.736-1.343-3.301-2.132-4.634-2.522-4.257-6.896-8.474-11.144-10.744-.246-.132-.444-.232-.585-.304-1.59-.802-5.904-2.686-11.637-2.84C13.606-.318.673 11.814.254 27.143.048 34.637 2.94 41.76 8.398 47.2c5.16 5.144 12.142 8.24 19.156 8.497l.255.008c10.878.292 21.276-6.105 25.932-15.982.423-.899.785-1.801 1.093-2.705-.341-.03-.676-.083-1.005-.155" mask="url(#prefix__b)"/>
        </g>
        <path fill="#E83D8C" d="M19.14 34.86c-.094-.093-.14-.207-.14-.34V21.5c0-.146.043-.267.13-.36.086-.093.202-.14.348-.14h1.555c.252 0 .445.113.577.34l5.7 8.88V21.5c0-.146.043-.267.13-.36.085-.093.202-.14.348-.14h1.714c.146 0 .265.047.358.14.093.093.14.213.14.36v13c0 .147-.047.267-.14.36-.093.093-.206.14-.338.14h-1.575c-.266 0-.465-.113-.598-.34l-5.679-8.68v8.54c0 .133-.043.247-.129.34-.087.093-.203.14-.349.14h-1.714c-.133 0-.246-.047-.339-.14M37.447 33.64C36.482 32.731 36 31.358 36 29.517v-8.025c0-.144.042-.263.126-.355.083-.092.196-.138.337-.138h1.776c.14 0 .257.046.347.138.09.092.135.21.135.355v8.025c0 1.039.241 1.821.724 2.347.482.526 1.167.789 2.055.789.888 0 1.573-.263 2.055-.79.483-.525.724-1.307.724-2.346v-8.025c0-.144.045-.263.135-.355.09-.092.205-.138.347-.138h1.776c.141 0 .253.046.337.138.084.092.126.21.126.355v8.025c0 1.84-.48 3.214-1.438 4.121-.959.907-2.306 1.361-4.043 1.361-1.75 0-3.107-.454-4.072-1.36M52.654 33.63c-1.021-.915-1.566-2.214-1.633-3.9-.014-.35-.021-.92-.021-1.71 0-.804.007-1.387.02-1.75.068-1.66.616-2.953 1.645-3.88 1.028-.926 2.47-1.39 4.324-1.39 1.204 0 2.253.198 3.146.593.893.396 1.587.937 2.081 1.624s.754 1.458.781 2.314v.038c0 .104-.043.192-.131.263-.089.071-.186.107-.295.107h-1.969c-.162 0-.284-.036-.365-.107-.081-.071-.15-.198-.203-.38-.203-.803-.555-1.37-1.056-1.7-.5-.331-1.164-.496-1.99-.496-1.935 0-2.943 1.037-3.024 3.11-.014.35-.02.889-.02 1.615s.006 1.277.02 1.652c.081 2.075 1.09 3.111 3.025 3.111.812 0 1.471-.165 1.979-.495.507-.33.863-.898 1.066-1.702.054-.181.122-.307.203-.379.08-.07.203-.107.365-.107h1.97c.121 0 .226.039.314.117.088.078.125.175.111.291-.027.856-.287 1.627-.78 2.314-.495.688-1.189 1.228-2.082 1.624-.893.395-1.942.593-3.146.593-1.868 0-3.313-.457-4.335-1.37M68.13 34.86c-.087-.093-.13-.207-.13-.34V21.48c0-.146.043-.263.13-.35.087-.087.192-.13.316-.13h1.748c.136 0 .245.043.326.13.08.087.12.204.12.35V32.6h5.895c.136 0 .248.047.335.14.087.093.13.207.13.34v1.44c0 .133-.043.247-.13.34-.087.093-.199.14-.335.14h-8.089c-.124 0-.23-.047-.316-.14M81.14 34.86c-.093-.093-.14-.207-.14-.34V21.5c0-.146.043-.267.13-.36.088-.093.204-.14.352-.14h8.856c.147 0 .267.047.361.14.094.093.14.213.14.36v1.34c0 .147-.046.264-.14.35-.094.087-.214.13-.361.13H83.75v3.5h6.145c.147 0 .267.047.361.14.093.093.14.213.14.36v1.26c0 .147-.047.264-.14.35-.094.087-.214.13-.361.13H83.75v3.62h6.747c.147 0 .268.043.361.13.094.087.141.203.141.35v1.36c0 .147-.047.263-.14.35-.094.087-.215.13-.362.13h-9.016c-.134 0-.248-.047-.341-.14M97.447 33.64C96.482 32.731 96 31.358 96 29.517v-8.025c0-.144.041-.263.125-.355.084-.092.196-.138.338-.138h1.775c.142 0 .258.046.348.138.09.092.135.21.135.355v8.025c0 1.039.241 1.821.723 2.347.483.526 1.168.789 2.056.789.888 0 1.573-.263 2.055-.79.483-.525.724-1.307.724-2.346v-8.025c0-.144.045-.263.135-.355.09-.092.206-.138.347-.138h1.776c.141 0 .254.046.338.138.083.092.125.21.125.355v8.025c0 1.84-.48 3.214-1.437 4.121-.96.907-2.307 1.361-4.044 1.361-1.75 0-3.107-.454-4.072-1.36M112.774 34.475c-.897-.35-1.576-.81-2.038-1.38-.463-.57-.708-1.193-.736-1.867 0-.104.042-.198.126-.282.084-.084.19-.127.315-.127h1.913c.154 0 .28.033.378.098.098.065.19.155.274.272.14.44.458.81.956 1.108.497.299 1.18.447 2.049.447.98 0 1.72-.152 2.217-.457.497-.304.746-.722.746-1.253 0-.35-.126-.642-.378-.876-.253-.233-.634-.437-1.145-.612-.512-.175-1.272-.386-2.281-.632-1.653-.363-2.865-.843-3.636-1.44-.77-.595-1.155-1.45-1.155-2.566 0-.751.223-1.422.672-2.012.448-.59 1.09-1.053 1.923-1.39.833-.338 1.804-.506 2.91-.506 1.163 0 2.168.188 3.016.564.848.376 1.493.846 1.934 1.41.441.563.676 1.124.704 1.682 0 .103-.042.197-.126.282-.084.084-.19.126-.315.126H119.1c-.308 0-.519-.117-.63-.35-.07-.415-.344-.762-.82-1.04-.477-.28-1.065-.418-1.765-.418-.771 0-1.377.135-1.818.408-.442.272-.662.668-.662 1.186 0 .35.112.642.336.875.224.233.575.438 1.05.613.477.174 1.17.372 2.081.592 1.247.26 2.238.552 2.974.876.736.324 1.279.732 1.629 1.225.35.492.525 1.12.525 1.886 0 .843-.249 1.572-.746 2.187-.497.616-1.197 1.086-2.102 1.41-.903.324-1.95.486-3.141.486-1.261 0-2.34-.175-3.237-.525M8 26.5C8 28.433 6.433 30 4.5 30S1 28.433 1 26.5 2.567 23 4.5 23 8 24.567 8 26.5"/>
        <path fill="#FEFEFE" d="M4.5 23.4c-1.71 0-3.1 1.39-3.1 3.1 0 1.71 1.39 3.1 3.1 3.1 1.71 0 3.1-1.39 3.1-3.1 0-1.71-1.39-3.1-3.1-3.1m0 7.6C2.019 31 0 28.981 0 26.5 0 24.018 2.019 22 4.5 22S9 24.018 9 26.5C9 28.98 6.981 31 4.5 31"/>
        <path fill="#E83D8C" d="M125.042 23.84l-1.037-3.669c-.003-.011-.005-.028-.005-.051 0-.034.01-.063.03-.086.018-.023.043-.034.072-.034h.431c.042 0 .076.013.102.04.026.027.044.055.053.086l.81 2.925.814-2.925c.006-.03.023-.06.048-.086.026-.027.06-.04.102-.04h.436c.026 0 .05.011.07.034.021.023.032.052.032.086l-.01.051-1.032 3.669c-.032.107-.095.16-.189.16h-.538c-.097 0-.16-.053-.189-.16M128.026 23.96c-.017-.026-.026-.057-.026-.095v-.292c0-.105.031-.193.095-.264l.59-.87c.18-.21.318-.382.415-.515.097-.132.17-.255.218-.368.048-.112.072-.222.072-.331 0-.176-.031-.315-.095-.416-.063-.1-.159-.152-.288-.152-.126 0-.225.056-.297.166-.072.11-.117.254-.134.43-.008.045-.022.078-.044.098-.021.02-.045.031-.07.031h-.341c-.023 0-.042-.011-.057-.034-.015-.022-.023-.05-.023-.084.006-.22.047-.428.124-.62.077-.193.187-.349.331-.467.144-.118.313-.177.508-.177.202 0 .373.052.515.155.141.103.247.244.318.424.07.18.106.384.106.612 0 .251-.047.479-.142.683-.095.204-.242.422-.441.654l-.527.792h1.072c.028 0 .05.013.068.04.018.026.027.06.027.1v.405c0 .042-.009.074-.027.099-.017.024-.04.036-.068.036h-1.814c-.026 0-.047-.013-.065-.04"/>
    </g>
</svg>
