<svg xmlns="http://www.w3.org/2000/svg" xmlns:xlink="http://www.w3.org/1999/xlink" width="120" height="120" viewBox="0 0 120 120">
    <defs>
        <circle id="a" cx="60" cy="60" r="60"/>
        <linearGradient id="c" x1="49.917%" x2="49.917%" y1="100.036%" y2="-.004%">
            <stop offset="0%" stop-color="gray" stop-opacity=".25"/>
            <stop offset="54%" stop-color="gray" stop-opacity=".12"/>
            <stop offset="100%" stop-color="gray" stop-opacity=".1"/>
        </linearGradient>
    </defs>
    <g fill="none" fill-rule="evenodd">
        <mask id="b" fill="#fff">
            <use xlink:href="#a"/>
        </mask>
        <use fill="#D8D8D8" xlink:href="#a"/>
        <g fill-rule="nonzero" mask="url(#b)">
            <g transform="matrix(-1 0 0 1 191 -28)">
                <path fill="rgba(122, 67, 249, 0.4)" d="M0 0h235v279H0z"/>
                <path fill="url(#c)" d="M167.264 85.865c.757-2.084 1.945-4.022 2.55-6.15.81-2.848.514-5.864.166-8.8a7.301 7.301 0 0 0-1.104-3.643c-1.03-1.355-2.83-1.916-4.214-2.914-3.374-2.44-3.843-6.958-5.023-10.834-1.543-5.015-4.613-9.47-8.813-12.786-2.648-2.076-6.423-3.694-9.411-2.084-1.263.678-2.186 1.858-3.48 2.477-1.68.81-3.6.561-5.515.46a2.717 2.717 0 0 0-.877-.67c-1.8-.831-5.167.145-6.862.822a6.36 6.36 0 0 0-3.381 2.74 5.01 5.01 0 0 0-.371 1.02c-.227.874-.303 1.792-.583 2.666a7.43 7.43 0 0 1-.945 1.85c-1.127 1.61-2.784 2.959-3.926 4.598a10.447 10.447 0 0 0-1.271 2.477 20.757 20.757 0 0 0-.93 7.97c.15 3.643.604 7.286-.31 10.82-.288 1.085-.697 2.185-1.037 3.234-.06.175-.129.365-.182.54l-.136.524c-.06.255-.121.51-.166.765-.091.525-.144 1.056-.182 1.596v.801c0 .54 0 1.078-.068 1.617-.029.803-.14 1.601-.333 2.383-.244.879-.605 1.724-1.074 2.513-.522.904-1.135 1.756-1.74 2.601l-2.028 2.834c-2.405-.182-4.856-.145-6.914.97-1.899 1.124-3.302 2.882-3.941 4.939a1.528 1.528 0 0 0-.462.255c-.416.335-.87 1.537-1.308 3.053v.036c-.893 3.126-1.703 7.57-1.967 8.56-.606 2.186-1.082 4.467-1.513 6.725-.863 4.626-1.453 9.297-2.27 13.93-.166.947-1.248 7.22-2.315 10.82 0 .094-.045.181-.075.269-.416 1.34-.817 2.251-1.165 2.251h1.059c-.19.43-.37.874-.537 1.319a26.722 26.722 0 0 0-.855 2.797.218.218 0 0 0 0 .059 53.384 53.384 0 0 0-1.264 8.874 350.012 350.012 0 0 0-.15 52.237 25.784 25.784 0 0 0 1.353 7.584 10.957 10.957 0 0 0 2.126 3.417l.136.146c-.083.35-.159.685-.25 1.035a416.81 416.81 0 0 1-8.85 31.925c-.076.226-.144.459-.227.685-.205.656-.416 1.319-.628 1.974-.129.423-.265.845-.386 1.275-.09.277-.167.554-.242.816a36.184 36.184 0 0 0-1.218 5.829 37.089 37.089 0 0 0 .62 10.928h24.102c0-.16-.045-.313-.06-.474-.47-3.249-1.037-6.63.037-9.733.689-2.004 2.005-3.738 3.095-5.566 2.269-3.767 3.54-8.014 5.605-11.854 3.026-5.61 7.648-10.498 9.782-16.392.227-.622.423-1.256.59-1.902 1.467 4.204 1.46 8.466 1.732 12.88A155.751 155.751 0 0 0 125.302 278h24.336c-.4-6.134-.968-12.276-1.324-18.389-.3-3.344-.23-6.71.204-10.04a50.24 50.24 0 0 1 1.907-7.154c2.746-8.48 5.65-16.997 6.559-25.827.907-8.83 1.558-21.303-3.488-28.764a2.47 2.47 0 0 0-.325-.4 6.444 6.444 0 0 0 0-2.018c-1.37-12.145-8.586-23.802-6.498-35.86a44.573 44.573 0 0 1 2.957-9.209c3.072-7.468 6.491-15.125 8.367-22.899a34.016 34.016 0 0 0 1.77-6.717c.366-2.019.558-4.063.575-6.112a13.773 13.773 0 0 0-.204-2.325c2.52.846 4.985 2.507 7.663 2.835.229.03.458.05.689.058a.955.955 0 0 1-.09-.146 3.115 3.115 0 0 1-.508-1.588c.472.102.955.139 1.438.11a5.651 5.651 0 0 0 2.67-.795c-4.877-4.253-6.728-10.856-4.736-16.895zm-73.38 108.941c-.408.83-.756 1.668-1.134 2.528v-.095a19.387 19.387 0 0 1-.704-10.55c.06-.218.113-.436.166-.648.053-.21.152-.553.227-.837.509 2.176 1.967 4.035 4.002 5.1-.22.342-.439.677-.65 1.02a38.502 38.502 0 0 0-1.945 3.482h.038zm3.382-24.093c-.681 1.296-1.513 2.513-2.338 3.759a151.512 151.512 0 0 0 2.497-19.438c.068-1.056.12-2.12.166-3.176.568 2.44.925 4.92 1.067 7.416.272 3.271.537 6.652-.613 9.741a12.485 12.485 0 0 1-.817 1.698h.038z"/>
                <path fill="#192534" d="M123.8 43.155c-1.45.498-2.663 1.468-3.422 2.736-.582 1.145-.558 2.48-.954 3.668-.838 2.553-3.351 4.232-4.91 6.455-2.119 3.015-2.328 6.858-2.227 10.482.1 3.623.613 7.335-.318 10.826-.45 1.71-1.226 3.345-1.552 5.084-.38 2.112-.062 4.32-.613 6.396a16.229 16.229 0 0 1-2.847 5.134L102 100.802a59.24 59.24 0 0 0 6.548-1.87A11.095 11.095 0 0 1 105.01 104l3.584-4.108a9.98 9.98 0 0 1 2.669-2.39c1.319-.734 2.878-.822 4.352-1.101 2.847-.55 5.686-1.93 7.083-4.343 1.854-3.22.667-7.269 1.706-10.804.776-2.582 2.63-4.71 3.918-7.093 2.933-5.384 2.754-11.736 3.67-17.729a52.206 52.206 0 0 0 1.008-7.65c0-1.9-.202-5.516-2.327-6.477-1.785-.807-5.183.168-6.874.85z"/>
                <path fill="#FFC1C7" d="M120.907 86.072c-.286 3.127-.964 6.806-3.91 8.114-1.665.727-3.608.473-5.416.727-3.42.538-6.223 3.076-7.813 6.042-1.59 2.967-2.124 6.348-2.493 9.67-.46 4.16-.61 8.675 1.755 12.18 1.914 2.842 5.22 4.565 8.611 5.445 6.906 1.738 14.254.422 20.054-3.592a44.343 44.343 0 0 0 7.383-7.038c4.912-5.518 9.861-11.568 10.863-18.78.12-.822.113-1.81-.587-2.298a2.64 2.64 0 0 0-1.575-.298l-4.716.08c-1.198 0-2.546 0-3.352-.865s-.754-1.963-.754-3.025l.362-13.182a1.81 1.81 0 0 0-.309-1.33 1.833 1.833 0 0 0-1.085-.451c-2.591-.422-5.273 0-7.85-.684-2.418-.64-6.207-3.322-7.985-.567-1.492 2.385-.934 7.198-1.183 9.852z"/>
                <path fill="#000" d="M120.907 86.072c-.286 3.127-.964 6.806-3.91 8.114-1.665.727-3.608.473-5.416.727-3.42.538-6.223 3.076-7.813 6.042-1.59 2.967-2.124 6.348-2.493 9.67-.46 4.16-.61 8.675 1.755 12.18 1.914 2.842 5.22 4.565 8.611 5.445 6.906 1.738 14.254.422 20.054-3.592a44.343 44.343 0 0 0 7.383-7.038c4.912-5.518 9.861-11.568 10.863-18.78.12-.822.113-1.81-.587-2.298a2.64 2.64 0 0 0-1.575-.298l-4.716.08c-1.198 0-2.546 0-3.352-.865s-.754-1.963-.754-3.025l.362-13.182a1.81 1.81 0 0 0-.309-1.33 1.833 1.833 0 0 0-1.085-.451c-2.591-.422-5.273 0-7.85-.684-2.418-.64-6.207-3.322-7.985-.567-1.492 2.385-.934 7.198-1.183 9.852z" opacity=".1"/>
                <ellipse cx="133" cy="68.5" fill="#FFC1C7" rx="18" ry="17.5"/>
                <path fill="#F2F2F2" d="M114.383 117.493c-2.913.059-6.204-.726-7.616-3.189-.966-1.685-.8-3.734-.619-5.644l1.05-10.693c-2.831-.284-5.873-.53-8.349.82-3.276 1.788-4.46 5.754-4.83 9.364-.687 6.778.43 13.621.045 20.42-.325 5.725-1.69 11.624.053 17.072.755 2.281 1.977 4.359 2.77 6.647a35.776 35.776 0 0 1 1.51 8.943c.271 3.24.528 6.588-.597 9.654-.943 2.572-2.778 4.73-4.09 7.14-2.152 3.982-2.612 9.343.618 12.576 2.951 2.956 7.85 3.08 11.994 2.179 4.144-.9 8.122-2.717 12.371-2.906 7.503-.305 14.19 4.359 21.535 5.899.984.26 2.018.295 3.019.102a7.435 7.435 0 0 0 2.415-1.272l4.016-2.775a5.466 5.466 0 0 0 1.94-1.896c.344-.863.43-1.801.249-2.71-1.344-12.036-8.424-23.601-6.378-35.551a45.163 45.163 0 0 1 2.906-9.125c5.095-12.538 11.201-25.57 9.224-38.9-.438-2.95-1.336-5.972-3.45-8.151-2.113-2.18-5.684-3.27-8.424-1.875-2.74 1.395-3.728 4.504-4.913 7.214-2.336 5.241-6.035 9.815-10.741 13.28-1.993 1.452-4.393 3.341-6.997 3.414-2.838.094-5.812-.087-8.71-.037z"/>
                <path fill="#FFC1C7" d="M86.732 143.496c-4.365 4.707-5.224 11.486-5.706 17.81a357.733 357.733 0 0 0-.144 52.18 25.794 25.794 0 0 0 1.335 7.578c.927 2.408 2.676 4.64 5.133 5.6 1.576.615 3.77.454 4.523-1.047.656-1.376-.316-2.928-1.055-4.239a15.034 15.034 0 0 1-1.59-10.029c.896.645 1.206 1.78 1.462 2.833l1.41 5.857c1.937-.278 2.66-2.57 2.97-4.444.565-3.397 1.108-7.005-.294-10.16-.754-1.684-1.998-3.12-2.744-4.795-1.885-4.232-2.631-9.063-1.418-13.521A153.853 153.853 0 0 0 95.891 141a20.645 20.645 0 0 1-9.159 2.496z"/>
                <path fill="#F2F2F2" d="M83 147.956A65.585 65.585 0 0 1 98.609 150c.672-3.296.347-6.71 0-10.058l-2.215-23.016c-.163-1.715.147-17.362-3.175-14.6-1.226 1.018-2.77 10.175-3.153 11.647-.576 2.198-1.034 4.462-1.477 6.718-.827 4.63-1.395 9.296-2.215 13.918-.192 1.348-2.185 13.355-3.374 13.347z"/>
                <path fill="#192534" d="M126.032 46.133a2.845 2.845 0 0 1 .374-1.545 2.813 2.813 0 0 1 1.954-.983c2.634-.383 5.52.621 7.902-.52 1.29-.614 2.2-1.77 3.459-2.441 2.962-1.582 6.703 0 9.33 2.058 4.182 3.28 7.23 7.67 8.749 12.604 1.16 3.814 1.634 8.27 4.978 10.676 1.381.997 3.168 1.546 4.176 2.89a7.084 7.084 0 0 1 1.107 3.61c.343 2.89.633 5.873-.168 8.668-.603 2.095-1.794 4.002-2.527 6.06-2.034 5.957-.225 12.488 4.634 16.736a5.714 5.714 0 0 1-4.085.672c.03.609.236 1.199.596 1.704-4.275-.122-7.986-4.059-12.162-3.2-3.184.65-4.963 3.771-7.345 5.88-3.054 2.73-7.825 3.872-11.673 2.254-3.848-1.618-6.184-6.212-4.58-9.881 1.854-4.182 7.588-5.83 9.58-9.96 1.528-3.2.398-6.928.726-10.43.282-3.006 1.657-5.78 2.512-8.712.855-2.932 1.13-6.226-.611-8.754-1.84-2.68-5.344-3.727-8.597-4.724-7.207-2.26-8.604-5.72-8.33-12.662z"/>
                <path fill="#FFC1C7" d="M130.442 108.912c-.523-2.463-1.037-5.08-.115-7.425 1.712-4.38 7.327-5.744 11.214-8.56a14.64 14.64 0 0 0 4.992-6.386c.707-1.784.769-4.225-.937-5.161a4.3 4.3 0 0 0-2.166-.362c-6.052.133-11.598 3.296-16.237 7.027-2.704 2.175-5.27 4.668-6.614 7.794a25.052 25.052 0 0 0-1.536 7.005l-.945 7.904A115.815 115.815 0 0 0 117 124.38c-.004 2.61.165 5.219.507 7.809.246 1.843.607 3.738 1.728 5.25 2.097 2.809 6.145 3.435 9.724 3.531 1.363.079 2.73-.003 4.071-.243 5.976-1.246 10.516-9.29 5.991-14.26-1.928-2.109-4.816-2.16-5.906-5.058-1.46-3.842-1.844-8.48-2.673-12.498z"/>
                <path fill="#F2F2F2" d="M135.214 110.12l-4.634 7.269c-.278.374-.47.8-.565 1.251-.128.948.603 1.78 1.19 2.553 3.994 5.23 3.014 12.434 1.779 18.807 12.999-3.951 22.498-14.692 24.451-27.646.588-3.797 1.507-10.061-1.989-12.535-8.462-5.953-16.26 4.087-20.232 10.3z"/>
                <path fill="#192534" d="M111.65 95.41c1.803-.278 3.755 0 5.4-.733 2.936-1.32 3.612-5.032 3.897-8.186 0-.286.045-.608.053-.946a25.969 25.969 0 0 0-3.41-2.934 17.295 17.295 0 0 0-3.492-1.467L110.9 80c-.315.849-.566 1.72-.75 2.604-.369 2.112-.06 4.32-.594 6.396a16.39 16.39 0 0 1-2.756 5.134L102 101a63.922 63.922 0 0 0 2.59-.675c1.55-2.528 4.108-4.31 7.06-4.914z"/>
            </g>
        </g>
    </g>
</svg>
